<?xml version="1.0" standalone="no"?>
<!DOCTYPE svg PUBLIC "-//W3C//DTD SVG 20010904//EN"
 "http://www.w3.org/TR/2001/REC-SVG-20010904/DTD/svg10.dtd">
<svg version="1.0" xmlns="http://www.w3.org/2000/svg"
 width="2048.000000pt" height="2048.000000pt" viewBox="0 0 2048.000000 2048.000000"
 preserveAspectRatio="xMidYMid meet">

<g transform="translate(0.000000,2048.000000) scale(0.100000,-0.100000)"
fill="#000000" stroke="none">
<path d="M10159 17697 c-20 -8 -83 -41 -140 -74 -57 -33 -132 -75 -166 -92
-77 -38 -258 -111 -278 -111 -8 0 -29 -13 -47 -29 -46 -40 -314 -214 -558
-363 -710 -433 -2216 -1306 -3050 -1769 -157 -87 -291 -162 -299 -166 -11 -7
-14 -409 -22 -2413 -4 -1323 -8 -2536 -9 -2695 l0 -291 223 -129 c122 -71 490
-285 817 -475 532 -310 869 -506 2288 -1332 215 -125 571 -332 789 -459 l397
-232 61 6 c273 27 1066 447 2635 1397 680 412 1242 740 1555 910 231 125 356
197 454 263 l74 49 -7 1797 c-3 988 -9 2200 -12 2694 l-7 898 -66 38 c-36 22
-196 114 -356 207 -159 92 -560 326 -890 519 -797 467 -837 490 -1370 797
-444 256 -689 399 -1220 712 -321 190 -503 289 -587 321 -86 32 -162 40 -209
22z m-76 -649 c11 -405 8 -1284 -4 -1620 -6 -167 -11 -304 -12 -304 -1 -1
-416 2 -922 6 -506 5 -1346 12 -1867 16 -522 4 -948 10 -948 13 0 3 96 61 213
128 116 66 466 267 777 445 311 179 889 511 1285 738 396 227 887 509 1090
626 204 118 373 214 376 214 3 0 9 -118 12 -262z m607 95 c1085 -569 3440
-1949 3440 -2015 0 -8 -186 -9 -692 -5 -380 4 -1221 7 -1868 7 l-1177 0 -7
1070 c-4 588 -5 1074 -2 1079 8 12 107 -32 306 -136z m3365 -2310 l50 -9 -145
-95 c-587 -388 -3059 -1818 -3595 -2081 l-126 -62 -87 43 c-598 295 -3447
1953 -3737 2174 l-47 36 158 4 c357 7 7483 -2 7529 -10z m-7588 -457 c136 -78
511 -295 833 -481 322 -186 754 -436 960 -555 206 -119 553 -320 770 -445 217
-126 544 -314 725 -419 l330 -191 -4 -1870 c-2 -1029 -7 -2043 -10 -2254 l-6
-384 -242 419 c-1012 1756 -1700 2944 -1953 3374 -825 1402 -1339 2303 -1549
2715 -82 160 -116 235 -106 235 2 0 116 -65 252 -144z m7260 -803 c-1618
-2839 -1607 -2820 -2572 -4513 -180 -316 -407 -703 -505 -860 -98 -157 -196
-316 -219 -355 l-41 -70 3 2259 2 2258 725 418 c399 230 1267 731 1930 1113
663 382 1207 693 1208 691 2 -1 -237 -425 -531 -941z m868 759 c-2 -9 -4 -970
-4 -2136 l-1 -2118 -27 7 c-51 12 -226 94 -398 187 -390 209 -1455 832 -1455
851 0 18 180 358 360 682 614 1102 1332 2315 1505 2541 12 17 24 9 20 -14z
m-8667 -19 c167 -212 914 -1477 1481 -2508 183 -333 368 -692 360 -698 -2 -2
-60 -34 -129 -72 -69 -37 -331 -191 -582 -341 -528 -315 -788 -462 -943 -532
-97 -44 -203 -82 -227 -82 -4 0 -8 961 -8 2135 0 1286 4 2135 9 2135 5 0 23
-17 39 -37z m2050 -3560 c255 -380 1079 -1784 1526 -2601 106 -193 266 -505
266 -517 0 -14 -40 4 -224 101 -387 205 -1274 720 -1938 1126 -342 209 -773
465 -913 543 -171 96 -468 244 -552 276 -35 13 -63 29 -63 36 0 20 150 151
279 242 193 138 524 340 886 541 188 105 646 339 662 340 7 0 39 -39 71 -87z
m4787 -7 c223 -109 344 -178 750 -426 375 -230 552 -332 730 -422 77 -39 141
-72 143 -73 6 -6 -20 -49 -56 -93 -50 -61 -107 -100 -288 -195 -87 -46 -215
-117 -284 -157 -69 -40 -246 -144 -395 -230 -148 -86 -475 -276 -725 -422
-250 -146 -581 -338 -735 -428 -154 -89 -386 -226 -515 -303 -367 -219 -539
-312 -659 -358 -21 -9 -23 -7 -17 16 62 248 1769 3185 1850 3185 6 0 97 -42
201 -94z"/>
<path d="M2772 4338 l3 -1063 23 -75 c33 -107 78 -184 147 -254 68 -69 145
-113 255 -148 66 -20 95 -23 245 -23 150 0 179 3 245 23 80 26 171 69 208 98
l23 19 -62 137 -61 137 -37 -24 c-72 -48 -148 -68 -261 -69 -90 0 -113 3 -157
23 -68 30 -134 101 -164 177 l-24 59 0 630 0 630 308 3 307 2 0 155 0 155
-307 2 -308 3 -3 233 -2 232 -191 0 -190 0 3 -1062z"/>
<path d="M5396 4949 c-199 -21 -374 -93 -494 -204 -39 -36 -83 -86 -99 -110
-15 -25 -31 -45 -35 -45 -5 0 -8 77 -8 170 l0 170 -182 0 -183 0 3 -1070 2
-1070 190 0 190 0 0 583 c0 320 5 612 10 648 34 234 154 413 334 499 100 47
177 63 308 64 l118 1 0 188 0 187 -37 -1 c-21 -1 -74 -5 -117 -10z"/>
<path d="M6745 4949 c-549 -65 -907 -463 -932 -1034 -15 -333 93 -633 306
-846 129 -129 278 -214 469 -266 89 -25 113 -27 292 -27 173 -1 204 2 280 22
176 47 319 133 437 260 l63 67 0 -167 0 -168 185 0 185 0 0 1070 0 1070 -195
0 -195 0 0 -157 0 -157 -72 72 c-108 107 -220 176 -358 220 -130 42 -319 59
-465 41z m260 -339 c109 -13 181 -33 260 -73 232 -116 367 -336 382 -624 21
-389 -178 -687 -527 -789 -101 -29 -308 -26 -415 7 -284 87 -471 322 -505 635
-18 172 12 341 88 489 43 84 170 216 252 262 75 43 195 82 283 92 39 5 77 9
82 10 6 0 50 -4 100 -9z"/>
<path d="M9303 4949 c-279 -27 -521 -147 -636 -316 -67 -97 -89 -166 -94 -293
-8 -182 33 -299 143 -407 118 -116 293 -180 659 -242 322 -55 422 -88 496
-162 107 -107 62 -286 -92 -364 -91 -47 -168 -59 -364 -59 -148 0 -198 4 -282
22 -163 35 -356 111 -446 174 -16 11 -30 19 -31 17 -2 -2 -38 -73 -80 -157
l-76 -152 52 -34 c102 -65 228 -115 386 -155 269 -68 621 -68 862 -1 160 45
319 141 394 236 169 218 153 544 -35 718 -116 108 -255 158 -637 230 -397 75
-496 118 -549 234 -21 46 -25 64 -20 115 10 107 87 186 230 234 79 26 91 27
282 28 174 0 211 -3 288 -23 104 -26 202 -64 270 -104 27 -16 51 -28 52 -26
11 13 155 288 155 296 0 16 -125 77 -230 113 -118 39 -248 65 -390 78 -129 12
-175 12 -307 0z"/>
<path d="M11585 4954 c-202 -28 -293 -53 -420 -116 -263 -131 -442 -359 -522
-667 -31 -117 -42 -356 -24 -493 63 -472 403 -821 874 -898 81 -13 295 -13
376 0 194 32 358 115 495 251 49 49 89 89 90 89 0 0 0 -74 -2 -165 l-3 -165
186 0 185 0 0 1070 0 1070 -190 0 -190 0 0 -155 c0 -85 -2 -155 -4 -155 -2 0
-35 31 -73 69 -124 124 -282 209 -454 245 -77 16 -269 28 -324 20z m334 -365
c128 -33 215 -82 311 -179 128 -127 186 -253 209 -451 13 -101 4 -227 -23
-329 -63 -239 -243 -426 -481 -499 -107 -33 -314 -36 -415 -7 -349 102 -547
398 -527 789 14 286 150 508 382 624 158 79 358 98 544 52z"/>
<path d="M16510 4949 c-251 -31 -466 -135 -631 -306 -205 -212 -299 -458 -300
-778 0 -209 29 -344 111 -510 133 -270 379 -464 695 -547 116 -31 127 -32 335
-32 194 -1 224 1 310 23 161 39 299 104 408 190 56 45 122 110 122 122 0 4
-45 62 -101 128 l-101 121 -49 -44 c-101 -91 -206 -148 -347 -189 -109 -31
-349 -30 -466 1 -159 44 -293 128 -381 240 -52 66 -119 192 -108 203 5 4 195
44 423 88 1018 196 1256 243 1264 252 14 13 -11 206 -40 307 -110 380 -398
643 -785 717 -103 19 -266 26 -359 14z m349 -349 c154 -52 268 -134 350 -251
52 -74 114 -209 109 -237 -2 -12 -22 -20 -73 -28 -39 -7 -158 -29 -265 -49
-107 -20 -242 -45 -300 -56 -58 -10 -246 -45 -418 -77 -172 -32 -315 -56 -317
-53 -8 8 -6 85 5 165 21 150 88 299 181 400 91 100 239 182 372 206 89 16 283
5 356 -20z"/>
<path d="M13224 4853 c35 -81 110 -252 361 -823 81 -184 217 -495 302 -690 86
-195 175 -398 198 -450 l41 -95 198 0 198 0 45 100 c24 55 146 332 270 615
124 283 306 700 405 925 99 226 189 429 199 453 l18 42 -187 0 -188 0 -191
-432 c-105 -238 -276 -623 -378 -856 -103 -233 -190 -421 -192 -418 -3 3 -169
387 -368 853 l-363 848 -201 3 -200 2 33 -77z"/>
</g>
</svg>
